<svg xmlns="http://www.w3.org/2000/svg" viewBox="0 0 185.97 280.63"><defs><style>.cls-1{opacity:0.3;}.cls-2,.cls-4,.cls-8,.cls-9{fill:none;stroke-miterlimit:10;}.cls-2{stroke:#dde0f1;stroke-width:0.25px;}.cls-11,.cls-3{fill:#eb9693;}.cls-10,.cls-3{opacity:0.48;}.cls-4{stroke:#e1cfb8;}.cls-4,.cls-8{stroke-width:0.5px;}.cls-5{fill:#0e183e;}.cls-6{fill:#0e183d;}.cls-7{fill:#ee6a57;}.cls-8{stroke:#0e183d;}.cls-9{stroke:#ee6a57;}</style></defs><title>Oscilloscope</title><g id="Layer_2" data-name="Layer 2"><g id="Design_Elements" data-name="Design Elements"><g class="cls-1"><line class="cls-2" x1="86.98" y1="44.25" x2="86.98" y2="2.25"/><line class="cls-2" x1="95.24" y1="44.25" x2="95.24" y2="2.25"/><line class="cls-2" x1="103.5" y1="44.25" x2="103.5" y2="2.25"/><line class="cls-2" x1="111.76" y1="44.25" x2="111.76" y2="2.25"/><line class="cls-2" x1="120.01" y1="44.25" x2="120.01" y2="2.25"/><line class="cls-2" x1="128.27" y1="44.25" x2="128.27" y2="2.25"/><line class="cls-2" x1="136.53" y1="44.25" x2="136.53" y2="2.25"/><line class="cls-2" x1="144.79" y1="44.25" x2="144.79" y2="2.25"/></g><g class="cls-1"><line class="cls-2" x1="146.26" y1="42.63" x2="86.69" y2="42.63"/><line class="cls-2" x1="146.26" y1="36.85" x2="86.69" y2="36.85"/><line class="cls-2" x1="146.26" y1="31.07" x2="86.69" y2="31.07"/><line class="cls-2" x1="146.26" y1="25.29" x2="86.69" y2="25.29"/><line class="cls-2" x1="146.26" y1="19.51" x2="86.69" y2="19.51"/><line class="cls-2" x1="146.26" y1="13.73" x2="86.69" y2="13.73"/><line class="cls-2" x1="146.26" y1="7.95" x2="86.69" y2="7.95"/><line class="cls-2" x1="146.26" y1="2.17" x2="86.69" y2="2.17"/></g><path class="cls-3" d="M177,0H91.66a9,9,0,0,0-9,9V45.11a9,9,0,0,0,9,9H177a9,9,0,0,0,9-9V9A9,9,0,0,0,177,0ZM146.29,35.12a9,9,0,0,1-9,9H95.4a9,9,0,0,1-9-9V11.26a9,9,0,0,1,9-9h41.92a9,9,0,0,1,9,9Z"/><path class="cls-4" d="M87,23.63S86.46,10,89.84,8.95,90.71,46.23,97,41a46.85,46.85,0,0,0,2.9-17.87C99.6,12.81,101.63,6,103.07,8.27S101.43,39.66,105.49,40s0-34.67,4.35-32.36c0,0,2.22-1.64,2.8,15.55s3.67,17.58,3.67,17.58,3.38-2.61,3.48-17.68,2.61-15.55,2.61-15.55"/><circle class="cls-5" cx="101.71" cy="48.96" r="2.65"/><circle class="cls-5" cx="115.15" cy="49.01" r="2.65"/><ellipse class="cls-6" cx="126.42" cy="49.48" rx="2.94" ry="1.18"/><circle class="cls-5" cx="158.15" cy="11.54" r="2.64"/><circle class="cls-5" cx="158.24" cy="26.85" r="4.24"/><rect class="cls-5" x="153.63" y="36.77" width="3.8" height="1.84" rx="0.92" ry="0.92"/><rect class="cls-5" x="160.73" y="36.77" width="3.8" height="1.84" rx="0.92" ry="0.92"/><circle class="cls-5" cx="176.49" cy="11.02" r="2.64"/><circle class="cls-5" cx="176.58" cy="26.33" r="4.24"/><rect class="cls-5" x="171.98" y="36.24" width="3.8" height="1.84" rx="0.92" ry="0.92"/><rect class="cls-5" x="179.08" y="36.24" width="3.8" height="1.84" rx="0.92" ry="0.92"/><circle class="cls-7" cx="101.27" cy="48.34" r="2.65"/><line class="cls-8" x1="116.25" y1="49.2" x2="123.76" y2="49.2"/><circle class="cls-7" cx="114.66" cy="48.42" r="2.65"/><ellipse class="cls-7" cx="125.7" cy="48.96" rx="2.94" ry="1.18"/><circle class="cls-7" cx="157.71" cy="11.02" r="2.64"/><circle class="cls-7" cx="157.8" cy="26.33" r="4.24"/><rect class="cls-7" x="153.19" y="36.25" width="3.8" height="1.84" rx="0.92" ry="0.92"/><rect class="cls-7" x="160.29" y="36.25" width="3.8" height="1.84" rx="0.92" ry="0.92"/><circle class="cls-7" cx="176.05" cy="10.5" r="2.64"/><circle class="cls-7" cx="176.14" cy="25.81" r="4.24"/><rect class="cls-7" x="171.54" y="35.72" width="3.8" height="1.84" rx="0.92" ry="0.92"/><rect class="cls-7" x="178.64" y="35.72" width="3.8" height="1.84" rx="0.92" ry="0.92"/><path class="cls-9" d="M86.84,25.49s7.54-6.83,14.37-5.69,10.1,5,10.1,5,5,8.82,11.67,8.11,13-7.83,13-7.83,5.27-5.83,9.25-5"/><circle class="cls-5" cx="157.18" cy="49.06" r="2.42"/><circle class="cls-5" cx="163.59" cy="49.19" r="2.42"/><circle class="cls-5" cx="176.72" cy="48.68" r="2.42"/><path class="cls-9" d="M156.83,50.38s1.32,12.54-2.3,16.73-16.95,8.19-16.95,8.19-18.85-6.28-8-10.09S141.2,69.4,141.2,69.4,142,81,131.68,82.92s-16.57-10.66-11.62-12.76,11.43-5.9,13.9.38-12,15.81-12,15.81-9.9,5.52-17.33,2.48a46.77,46.77,0,0,1-12-7S62.48,61.25,40.27,67.42-1.37,98.41.64,112.24c1.28,8.8,12.82,15.19,23.22,25.48,6.74,6.67,24.47,9.38,25.79,15.79.94,4.56-.73,9.83-1.86,11.16-2.73,3.21-8.63,27.17-20,28.46-3.93.45-2.57,5.22-2.76,6.84-.3,2.49,21.52,29.12,21.45,32.24"/><circle class="cls-7" cx="157.12" cy="49.3" r="1.5"/><path class="cls-7" d="M70.19,271.68c-3.28-6.65-8.5-16.13-14.69-26.49-11.42-19.12-21.79-34-23.15-33.15s6.79,17,18.22,36.09c6.19,10.36,12.06,19.45,16.36,25.49Z"/><circle class="cls-5" cx="60.5" cy="259.17" r="1.78" transform="translate(-124.35 67.71) rotate(-30.85)"/><ellipse class="cls-5" cx="45.67" cy="234.34" rx="1.56" ry="6.07" transform="translate(-113.72 56.59) rotate(-30.85)"/><path class="cls-7" d="M73.58,279.78l-.88-1.48a2.38,2.38,0,0,1-1.12.67l.88,1.48s.59.3.87.13S73.58,279.78,73.58,279.78Z"/><ellipse class="cls-7" cx="68.35" cy="272.31" rx="4.96" ry="0.85" transform="translate(-129.98 73.59) rotate(-30.85)"/><g class="cls-10"><path class="cls-11" d="M71.31,271a16.63,16.63,0,0,1-5.58,3.33c2.35,3.36,5.09,5.32,6.47,4.49S73.15,274.67,71.31,271Z"/></g><path class="cls-9" d="M33,213.16"/></g></g></svg>