<svg xmlns="http://www.w3.org/2000/svg" viewBox="0 0 172.53 150.21"><defs><style>.cls-1{fill:#b55657;}.cls-2{fill:#ee6a57;}.cls-3,.cls-5{fill:#eb9693;}.cls-3{opacity:0.48;}.cls-4{fill:none;stroke:#ee6a57;stroke-miterlimit:10;}</style></defs><title>top_porometer</title><g id="Layer_2" data-name="Layer 2"><g id="Design_Elements" data-name="Design Elements"><polygon class="cls-1" points="74.15 27.96 74.13 26.61 95.5 39.04 95.52 40.4 74.15 27.96"/><rect class="cls-2" x="77.17" y="26.29" width="10.33" height="24.72" transform="translate(157.16 -13.04) rotate(120.21)"/><polyline class="cls-3" points="75.13 53.3 63.02 50.28 58.84 49.41 52.24 47.37 44.52 44.56 37.76 38.69 30.13 32.82 24.17 25.52 17.28 19.27 10.86 13.13 5.87 8.66 3.13 5.29 1.12 1.43 0.66 0.54 0.66 0.54 0.02 0.96 0.25 2.25 0.97 5.57 2.62 7.31 3.84 9.62 4.7 10.9 3.96 13.04 5.27 15.01 6.66 16.63 7.39 17.53 7.25 18.95 7.17 20.24 8.03 22.14 10.15 24.04 10.8 25.92 10.67 29.21 11.25 30.28 12.36 31.37 13.31 31.98 13.76 33.61 15.18 34.7 16.01 35.88 16.75 38.04 16.36 39.65 17.89 42.27 19.7 44.8 20.74 44.44 21.57 46.26 22.56 48.54 24.01 48.46 24.93 49.62 24.91 50.78 26.55 51.27 29.32 52.62 32.23 54.35 32.13 57.12 33.52 58.74 36 58.62 38.05 59.07 37.28 61.44 40.06 62.48 40.87 62.09 42.69 62.52 42.74 64.18 46.74 65.2 49.36 66.18 51.75 66.36 54.47 66.2 57.7 66.28 59.99 66.17 62.17 65.61 64.44 64.92 67.18 63.74 68.99 62.75 70.88 60.48 72.54 57.98 74.31 55.81 74.61 54.3 75.46 52.9 76.87 51.99 80.98 49.88 82.38 48.77 84.22 46.78 84.16 43.86 85.55 41.8 85.21 39.3 85.18 36.16 84.3 32.36 82.94 28.11 81.9 24.16 81.19 22.09 80.56 21.16 79.92 20.54 78.61 20.99 77.25 20.72 76.93 20.09 76.55 18.97 75.69 17.69 75.3 16.87 74.95 16.16 73.47 15.51 72.28 16.02 71.44 16.31 70.46 16.23 68.96 16.43 68.31 14.87 67.58 13.65 66.34 11.87 65.46 11.75 62.54 12.13 63.37 13.63 61.89 12.35 59.95 10.71 57.53 9.75 53.51 9.35 50.91 10.04 48.4 6.7 45.97 5.75 44.22 7.08 41.48 6.45 40.1 5.77 38.99 5.31 37.64 4.73 35.92 5.84 34.43 7.3 32.99 8 30.59 6.83 29.29 5.18 26.4 5.02 23.48 4.76 22.2 5.31 21.92 6.35 19.49 5.08 17.57 4.06 16.68 3.32 15.62 3.58 14.68 3.9 14.65 4.75 13.87 5.23 12.55 4.74 11.54 3.62 10.46 2.94 9.49 3.48 8.65 3.77 7.55 4.25 6.95 3.72 3.86 2.06 3.35 1.18 2.07 0 0.82 0.41 0.71 0.38 0 1.05"/><path class="cls-4" d="M118.16,50"/><polygon class="cls-1" points="85.06 27.03 95.59 33.2 95.43 39.17 84.41 32.75 84.45 32.42 84.36 32.27 83.98 31.63 83.7 31.16 83.14 30.23 82.39 28.52 81.86 27.31 82.6 25.76 85.06 27.03"/><path class="cls-5" d="M127.16,57.23c3.22,0,3.22-5,0-5s-3.22,5,0,5Z"/><path class="cls-4" d="M158,149.92S204.38,83.85,128.4,57.1c0,0-21.85-13.68-38-12.87"/></g></g></svg>